<mxfile host="app.diagrams.net" agent="Mozilla/5.0 (Macintosh; Intel Mac OS X 10_15_7) AppleWebKit/537.36 (KHTML, like Gecko) Chrome/129.0.0.0 Safari/537.36" version="24.8.0">
  <diagram name="第 1 页" id="S5pGlmbsO3CV7hcOUFXd">
    <mxGraphModel dx="1097" dy="724" grid="1" gridSize="10" guides="1" tooltips="1" connect="1" arrows="1" fold="1" page="1" pageScale="1" pageWidth="850" pageHeight="1100" math="0" shadow="0">
      <root>
        <mxCell id="0" />
        <mxCell id="1" parent="0" />
        <mxCell id="2rkfp9FEgAKgRCf9g2w9-30" value="ConcreteDecorator" style="html=1;whiteSpace=wrap;fontStyle=1" vertex="1" parent="1">
          <mxGeometry x="300" y="411" width="160" height="30" as="geometry" />
        </mxCell>
        <mxCell id="2rkfp9FEgAKgRCf9g2w9-1" value="&lt;p style=&quot;margin:0px;margin-top:4px;text-align:center;&quot;&gt;&lt;i&gt;&amp;lt;&amp;lt;Interface&amp;gt;&amp;gt;&lt;/i&gt;&lt;br&gt;&lt;b&gt;Component&lt;/b&gt;&lt;/p&gt;&lt;hr size=&quot;1&quot; style=&quot;border-style:solid;&quot;&gt;&lt;p style=&quot;margin:0px;margin-left:4px;&quot;&gt;+ execute()&lt;/p&gt;&lt;p style=&quot;margin:0px;margin-left:4px;&quot;&gt;&lt;br&gt;&lt;/p&gt;" style="verticalAlign=top;align=left;overflow=fill;html=1;whiteSpace=wrap;" vertex="1" parent="1">
          <mxGeometry x="80" y="160" width="160" height="70" as="geometry" />
        </mxCell>
        <mxCell id="2rkfp9FEgAKgRCf9g2w9-9" value="" style="edgeStyle=orthogonalEdgeStyle;rounded=0;orthogonalLoop=1;jettySize=auto;html=1;endArrow=block;endFill=0;dashed=1;endSize=12;" edge="1" parent="1" source="2rkfp9FEgAKgRCf9g2w9-4" target="2rkfp9FEgAKgRCf9g2w9-1">
          <mxGeometry relative="1" as="geometry" />
        </mxCell>
        <mxCell id="2rkfp9FEgAKgRCf9g2w9-4" value="ConcreteComponent" style="swimlane;fontStyle=1;align=center;verticalAlign=top;childLayout=stackLayout;horizontal=1;startSize=26;horizontalStack=0;resizeParent=1;resizeParentMax=0;resizeLast=0;collapsible=1;marginBottom=0;whiteSpace=wrap;html=1;" vertex="1" parent="1">
          <mxGeometry x="80" y="280" width="160" height="86" as="geometry" />
        </mxCell>
        <mxCell id="2rkfp9FEgAKgRCf9g2w9-5" value="..." style="text;strokeColor=none;fillColor=none;align=left;verticalAlign=top;spacingLeft=4;spacingRight=4;overflow=hidden;rotatable=0;points=[[0,0.5],[1,0.5]];portConstraint=eastwest;whiteSpace=wrap;html=1;" vertex="1" parent="2rkfp9FEgAKgRCf9g2w9-4">
          <mxGeometry y="26" width="160" height="26" as="geometry" />
        </mxCell>
        <mxCell id="2rkfp9FEgAKgRCf9g2w9-6" value="" style="line;strokeWidth=1;fillColor=none;align=left;verticalAlign=middle;spacingTop=-1;spacingLeft=3;spacingRight=3;rotatable=0;labelPosition=right;points=[];portConstraint=eastwest;strokeColor=inherit;" vertex="1" parent="2rkfp9FEgAKgRCf9g2w9-4">
          <mxGeometry y="52" width="160" height="8" as="geometry" />
        </mxCell>
        <mxCell id="2rkfp9FEgAKgRCf9g2w9-7" value="+ execute()" style="text;strokeColor=none;fillColor=none;align=left;verticalAlign=top;spacingLeft=4;spacingRight=4;overflow=hidden;rotatable=0;points=[[0,0.5],[1,0.5]];portConstraint=eastwest;whiteSpace=wrap;html=1;" vertex="1" parent="2rkfp9FEgAKgRCf9g2w9-4">
          <mxGeometry y="60" width="160" height="26" as="geometry" />
        </mxCell>
        <mxCell id="2rkfp9FEgAKgRCf9g2w9-10" value="BaseDecorator" style="swimlane;fontStyle=1;align=center;verticalAlign=top;childLayout=stackLayout;horizontal=1;startSize=26;horizontalStack=0;resizeParent=1;resizeParentMax=0;resizeLast=0;collapsible=1;marginBottom=0;whiteSpace=wrap;html=1;" vertex="1" parent="1">
          <mxGeometry x="260" y="280" width="200" height="100" as="geometry" />
        </mxCell>
        <mxCell id="2rkfp9FEgAKgRCf9g2w9-11" value="- wrappee: Component" style="text;strokeColor=none;fillColor=none;align=left;verticalAlign=top;spacingLeft=4;spacingRight=4;overflow=hidden;rotatable=0;points=[[0,0.5],[1,0.5]];portConstraint=eastwest;whiteSpace=wrap;html=1;" vertex="1" parent="2rkfp9FEgAKgRCf9g2w9-10">
          <mxGeometry y="26" width="200" height="26" as="geometry" />
        </mxCell>
        <mxCell id="2rkfp9FEgAKgRCf9g2w9-12" value="" style="line;strokeWidth=1;fillColor=none;align=left;verticalAlign=middle;spacingTop=-1;spacingLeft=3;spacingRight=3;rotatable=0;labelPosition=right;points=[];portConstraint=eastwest;strokeColor=inherit;" vertex="1" parent="2rkfp9FEgAKgRCf9g2w9-10">
          <mxGeometry y="52" width="200" height="8" as="geometry" />
        </mxCell>
        <mxCell id="2rkfp9FEgAKgRCf9g2w9-13" value="&lt;div&gt;+ BaseDecorator(w: Component)&lt;/div&gt;+ execute()" style="text;strokeColor=none;fillColor=none;align=left;verticalAlign=top;spacingLeft=4;spacingRight=4;overflow=hidden;rotatable=0;points=[[0,0.5],[1,0.5]];portConstraint=eastwest;whiteSpace=wrap;html=1;" vertex="1" parent="2rkfp9FEgAKgRCf9g2w9-10">
          <mxGeometry y="60" width="200" height="40" as="geometry" />
        </mxCell>
        <mxCell id="2rkfp9FEgAKgRCf9g2w9-15" value="" style="edgeStyle=orthogonalEdgeStyle;rounded=0;orthogonalLoop=1;jettySize=auto;html=1;endArrow=block;endFill=0;dashed=1;endSize=12;" edge="1" parent="1" source="2rkfp9FEgAKgRCf9g2w9-10" target="2rkfp9FEgAKgRCf9g2w9-1">
          <mxGeometry relative="1" as="geometry">
            <mxPoint x="170" y="290" as="sourcePoint" />
            <mxPoint x="170" y="240" as="targetPoint" />
            <Array as="points">
              <mxPoint x="400" y="260" />
              <mxPoint x="160" y="260" />
            </Array>
          </mxGeometry>
        </mxCell>
        <mxCell id="2rkfp9FEgAKgRCf9g2w9-16" value="" style="endArrow=open;html=1;endSize=12;startArrow=diamondThin;startSize=14;startFill=0;edgeStyle=orthogonalEdgeStyle;align=left;verticalAlign=bottom;rounded=0;" edge="1" parent="1" source="2rkfp9FEgAKgRCf9g2w9-10" target="2rkfp9FEgAKgRCf9g2w9-1">
          <mxGeometry x="-1" y="3" relative="1" as="geometry">
            <mxPoint x="350" y="460" as="sourcePoint" />
            <mxPoint x="510" y="460" as="targetPoint" />
            <Array as="points">
              <mxPoint x="430" y="195" />
            </Array>
          </mxGeometry>
        </mxCell>
        <mxCell id="2rkfp9FEgAKgRCf9g2w9-21" value="" style="edgeStyle=orthogonalEdgeStyle;rounded=0;orthogonalLoop=1;jettySize=auto;html=1;endArrow=block;endFill=0;endSize=12;" edge="1" parent="1" source="2rkfp9FEgAKgRCf9g2w9-17" target="2rkfp9FEgAKgRCf9g2w9-10">
          <mxGeometry relative="1" as="geometry" />
        </mxCell>
        <mxCell id="2rkfp9FEgAKgRCf9g2w9-17" value="ConcreteDecorator" style="swimlane;fontStyle=1;align=center;verticalAlign=top;childLayout=stackLayout;horizontal=1;startSize=26;horizontalStack=0;resizeParent=1;resizeParentMax=0;resizeLast=0;collapsible=1;marginBottom=0;whiteSpace=wrap;html=1;" vertex="1" parent="1">
          <mxGeometry x="280" y="430" width="160" height="110" as="geometry" />
        </mxCell>
        <mxCell id="2rkfp9FEgAKgRCf9g2w9-18" value="..." style="text;strokeColor=none;fillColor=none;align=left;verticalAlign=top;spacingLeft=4;spacingRight=4;overflow=hidden;rotatable=0;points=[[0,0.5],[1,0.5]];portConstraint=eastwest;whiteSpace=wrap;html=1;" vertex="1" parent="2rkfp9FEgAKgRCf9g2w9-17">
          <mxGeometry y="26" width="160" height="26" as="geometry" />
        </mxCell>
        <mxCell id="2rkfp9FEgAKgRCf9g2w9-19" value="" style="line;strokeWidth=1;fillColor=none;align=left;verticalAlign=middle;spacingTop=-1;spacingLeft=3;spacingRight=3;rotatable=0;labelPosition=right;points=[];portConstraint=eastwest;strokeColor=inherit;" vertex="1" parent="2rkfp9FEgAKgRCf9g2w9-17">
          <mxGeometry y="52" width="160" height="8" as="geometry" />
        </mxCell>
        <mxCell id="2rkfp9FEgAKgRCf9g2w9-20" value="+ execute()&lt;div&gt;+ extra()&lt;/div&gt;" style="text;strokeColor=none;fillColor=none;align=left;verticalAlign=top;spacingLeft=4;spacingRight=4;overflow=hidden;rotatable=0;points=[[0,0.5],[1,0.5]];portConstraint=eastwest;whiteSpace=wrap;html=1;" vertex="1" parent="2rkfp9FEgAKgRCf9g2w9-17">
          <mxGeometry y="60" width="160" height="50" as="geometry" />
        </mxCell>
        <mxCell id="2rkfp9FEgAKgRCf9g2w9-22" value="" style="ellipse;whiteSpace=wrap;html=1;aspect=fixed;" vertex="1" parent="1">
          <mxGeometry x="350" y="500" width="10" height="10" as="geometry" />
        </mxCell>
        <mxCell id="2rkfp9FEgAKgRCf9g2w9-23" value="" style="endArrow=none;dashed=1;html=1;rounded=0;" edge="1" parent="1" source="2rkfp9FEgAKgRCf9g2w9-22" target="2rkfp9FEgAKgRCf9g2w9-25">
          <mxGeometry width="50" height="50" relative="1" as="geometry">
            <mxPoint x="303" y="803" as="sourcePoint" />
            <mxPoint x="520" y="505" as="targetPoint" />
          </mxGeometry>
        </mxCell>
        <mxCell id="2rkfp9FEgAKgRCf9g2w9-25" value="super.execute()&lt;div&gt;extra()&lt;/div&gt;" style="shape=note;whiteSpace=wrap;html=1;backgroundOutline=1;darkOpacity=0.05;align=left;" vertex="1" parent="1">
          <mxGeometry x="460" y="480" width="170" height="50" as="geometry" />
        </mxCell>
        <mxCell id="2rkfp9FEgAKgRCf9g2w9-31" value="&lt;ol&gt;&lt;li&gt;部件 （Component） 声明封装器和被封装对象的公用接口。&lt;br&gt;&lt;/li&gt;&lt;li&gt;具体部件 （Concrete Component） 类是被封装对象所属的类。 它定义了基础行为， 但装饰类可以改变这些行为。&lt;br&gt;&lt;/li&gt;&lt;li&gt;基础装饰 （Base Decorator） 类拥有一个指向被封装对象的引用成员变量。 该变量的类型应当被声明为通用部件接口， 这样它就可以引用具体的部件和装饰。 装饰基类会将所有操作委派给被封装的对象。&lt;br&gt;&lt;/li&gt;&lt;li&gt;具体装饰类 （Concrete Decorators） 定义了可动态添加到部件的额外行为。 具体装饰类会重写装饰基类的方法， 并在调用父类方法之前或之后进行额外的行为。&lt;br&gt;&lt;/li&gt;&lt;li&gt;客户端 （Client） 可以使用多层装饰来封装部件， 只要它能使用通用接口与所有对象互动即可。&lt;br&gt;&lt;/li&gt;&lt;/ol&gt;" style="text;html=1;align=left;verticalAlign=middle;whiteSpace=wrap;rounded=0;fillColor=#f5f5f5;fontColor=#333333;strokeColor=#666666;" vertex="1" parent="1">
          <mxGeometry x="20" y="550" width="620" height="160" as="geometry" />
        </mxCell>
        <mxCell id="2rkfp9FEgAKgRCf9g2w9-33" value="" style="edgeStyle=orthogonalEdgeStyle;rounded=0;orthogonalLoop=1;jettySize=auto;html=1;endArrow=open;endFill=0;endSize=12;" edge="1" parent="1" source="2rkfp9FEgAKgRCf9g2w9-32" target="2rkfp9FEgAKgRCf9g2w9-1">
          <mxGeometry relative="1" as="geometry" />
        </mxCell>
        <mxCell id="2rkfp9FEgAKgRCf9g2w9-32" value="Client" style="html=1;whiteSpace=wrap;fontStyle=1" vertex="1" parent="1">
          <mxGeometry x="80" y="40" width="160" height="30" as="geometry" />
        </mxCell>
        <mxCell id="2rkfp9FEgAKgRCf9g2w9-34" value="a = new ConcCompoment()&lt;div&gt;b = new ConcDecorator1(a)&lt;/div&gt;&lt;div&gt;c = new ConcDecorator2(b)&lt;/div&gt;&lt;div&gt;c.execute()&lt;/div&gt;" style="shape=note;whiteSpace=wrap;html=1;backgroundOutline=1;darkOpacity=0.05;align=left;" vertex="1" parent="1">
          <mxGeometry x="290" y="40" width="170" height="120" as="geometry" />
        </mxCell>
        <mxCell id="2rkfp9FEgAKgRCf9g2w9-35" value="" style="endArrow=none;dashed=1;html=1;rounded=0;" edge="1" parent="1" source="2rkfp9FEgAKgRCf9g2w9-32" target="2rkfp9FEgAKgRCf9g2w9-34">
          <mxGeometry width="50" height="50" relative="1" as="geometry">
            <mxPoint x="370" y="515" as="sourcePoint" />
            <mxPoint x="470" y="515" as="targetPoint" />
          </mxGeometry>
        </mxCell>
      </root>
    </mxGraphModel>
  </diagram>
</mxfile>
